<?xml version="1.0" encoding="UTF-8" standalone="no"?>
<svg
   height="48"
   width="48"
   version="1.1"
   id="svg4"
   sodipodi:docname="conexao.svg"
   inkscape:version="1.2-beta (1b65182ce9, 2022-04-05)"
   xmlns:inkscape="http://www.inkscape.org/namespaces/inkscape"
   xmlns:sodipodi="http://sodipodi.sourceforge.net/DTD/sodipodi-0.dtd"
   xmlns="http://www.w3.org/2000/svg"
   xmlns:svg="http://www.w3.org/2000/svg">
  <defs
     id="defs8" />
  <sodipodi:namedview
     id="namedview6"
     pagecolor="#ffffff"
     bordercolor="#000000"
     borderopacity="0.25"
     inkscape:pageshadow="2"
     inkscape:pageopacity="0.0"
     inkscape:pagecheckerboard="0"
     inkscape:deskcolor="#d1d1d1"
     showgrid="false"
     inkscape:zoom="16.958333"
     inkscape:cx="24"
     inkscape:cy="24"
     inkscape:window-width="1920"
     inkscape:window-height="1001"
     inkscape:window-x="-9"
     inkscape:window-y="-9"
     inkscape:window-maximized="1"
     inkscape:current-layer="svg4" />
  <path
     d="M32.35 29.5Q33.2 28.25 33.6 26.85Q34 25.45 34 24Q34 22.1 33.275 20.225Q32.55 18.35 31.1 16.9Q29.65 15.45 27.825 14.75Q26 14.05 24.1 14.05L26 12.1L23.9 10L18.2 15.65L23.9 21.3L26 19.2L23.8 17Q25.15 17 26.55 17.525Q27.95 18.05 28.95 19.05Q29.95 20.05 30.475 21.35Q31 22.65 31 23.95Q31 24.8 30.775 25.65Q30.55 26.5 30.15 27.3ZM24.1 38 29.8 32.35 24.1 26.7 22 28.8 24.15 30.95Q22.75 31 21.425 30.5Q20.1 30 19.05 28.95Q18.05 27.95 17.525 26.65Q17 25.35 17 24.05Q17 23.2 17.225 22.35Q17.45 21.5 17.85 20.7L15.65 18.5Q14.8 19.75 14.4 21.15Q14 22.55 14 24Q14 25.9 14.75 27.75Q15.5 29.6 16.95 31.05Q18.4 32.5 20.2 33.225Q22 33.95 23.9 34L22 35.9ZM24 44Q19.75 44 16.1 42.475Q12.45 40.95 9.75 38.25Q7.05 35.55 5.525 31.9Q4 28.25 4 24Q4 19.8 5.525 16.15Q7.05 12.5 9.75 9.8Q12.45 7.1 16.1 5.55Q19.75 4 24 4Q28.2 4 31.85 5.55Q35.5 7.1 38.2 9.8Q40.9 12.5 42.45 16.15Q44 19.8 44 24Q44 28.25 42.45 31.9Q40.9 35.55 38.2 38.25Q35.5 40.95 31.85 42.475Q28.2 44 24 44ZM24 24Q24 24 24 24Q24 24 24 24Q24 24 24 24Q24 24 24 24Q24 24 24 24Q24 24 24 24Q24 24 24 24Q24 24 24 24ZM24 41Q31.25 41 36.125 36.125Q41 31.25 41 24Q41 16.75 36.125 11.875Q31.25 7 24 7Q16.75 7 11.875 11.875Q7 16.75 7 24Q7 31.25 11.875 36.125Q16.75 41 24 41Z"
     id="path2" />
  <path
     style="fill:#ff6600;stroke-width:0.0589681"
     d="M 22.496314,43.922337 C 20.804813,43.762714 20.015682,43.637052 18.840295,43.340152 15.387554,42.467996 12.284829,40.71083 9.7869996,38.213 6.6197094,35.04571 4.7049852,31.021666 4.1464871,26.358722 4.0291778,25.379298 4.0475881,22.380807 4.1768997,21.405405 4.6062031,18.167157 5.667406,15.325691 7.4383886,12.672474 8.1134907,11.661062 8.8168002,10.813893 9.7858624,9.8448305 11.454998,8.1756952 13.006007,7.0784553 15.195558,6.0178176 c 2.019959,-0.9784862 3.884325,-1.5312234 6.209847,-1.8410627 0.958296,-0.1276778 4.052254,-0.1478685 4.923833,-0.032132 2.387212,0.3169958 4.048925,0.7799463 6.071789,1.6915901 1.361454,0.6135664 2.946728,1.586705 4.188654,2.5712536 0.76655,0.6076902 2.359176,2.1935244 2.958777,2.9461604 1.833679,2.301683 3.172993,5.008214 3.850643,7.781508 0.662997,2.713328 0.739119,6.026653 0.202936,8.833097 -0.596186,3.120508 -2.015588,6.178604 -4.037964,8.699778 -3.335856,4.158608 -8.295616,6.75827 -13.795031,7.230676 -0.644789,0.05539 -2.773407,0.07077 -3.272728,0.02365 z m 4.275185,-3.084863 c 2.963119,-0.454969 5.329127,-1.425731 7.543141,-3.094917 2.891534,-2.17998 5.00854,-5.177374 5.978618,-8.464916 0.241196,-0.8174 0.388871,-1.496926 0.551046,-2.535626 0.118091,-0.756357 0.133498,-1.072813 0.133498,-2.742015 0,-1.994437 -0.06367,-2.678069 -0.38442,-4.127764 -0.846776,-3.827146 -3.055605,-7.19424 -6.33294,-9.653805 C 32.027103,8.5423612 29.567413,7.5545766 26.558485,7.1254099 25.512764,6.9762576 22.487061,6.9765065 21.434889,7.1258313 18.431802,7.5520316 15.934514,8.5612609 13.68536,10.25765 c -1.300585,0.980944 -2.449061,2.129351 -3.427917,3.42771 -1.6830805,2.232444 -2.7171678,4.779665 -3.1232174,7.69328 -0.1311559,0.941112 -0.1803565,3.259673 -0.0915,4.311929 0.3449907,4.085467 1.9132429,7.52474 4.7279994,10.368792 2.692318,2.720339 5.866043,4.297012 9.664164,4.801054 1.034714,0.137314 1.093894,0.139822 2.859951,0.121214 1.328786,-0.014 1.812266,-0.04214 2.476659,-0.144155 z"
     id="path360" />
  <path
     style="fill:#ff6600;stroke-width:0.0589681"
     d="m 23.083885,36.911892 -1.028508,-1.029769 0.938424,-0.9398 c 1.059218,-1.060772 1.044835,-0.970988 0.165543,-1.033424 -1.517903,-0.10778 -3.414953,-0.781724 -4.711666,-1.673861 -3.63256,-2.499195 -5.220047,-6.910379 -4.000902,-11.117392 0.07761,-0.267821 0.248306,-0.734096 0.379321,-1.036167 0.245708,-0.566507 0.752069,-1.477056 0.821399,-1.477056 0.02158,0 0.514081,0.475395 1.094447,1.056433 l 1.055211,1.056434 -0.215346,0.501276 c -0.437025,1.017293 -0.676422,2.318149 -0.598686,3.253178 0.265299,3.191056 2.461639,5.726637 5.517224,6.369399 0.517668,0.108895 1.647074,0.185629 1.647074,0.111905 0,-0.02892 -0.470727,-0.523861 -1.04606,-1.099861 l -1.046059,-1.047273 1.030887,-1.032152 1.030888,-1.032151 2.806761,2.806304 2.806762,2.806305 -2.785259,2.769877 c -1.531893,1.523432 -2.795989,2.780606 -2.809103,2.793721 -0.01312,0.01311 -0.486673,-0.439553 -1.052352,-1.005926 z"
     id="path362" />
  <path
     style="fill:#28170b;stroke-width:0.0589681"
     d="m 31.259252,28.34034 -1.054017,-1.055238 0.211567,-0.492674 c 0.727522,-1.694177 0.798101,-3.430018 0.207849,-5.111894 -0.844342,-2.405882 -2.757075,-4.032034 -5.345728,-4.544786 -0.677403,-0.134179 -1.485311,-0.212406 -1.485311,-0.143818 0,0.02677 0.483998,0.533204 1.075552,1.125407 l 1.075552,1.076732 -1.030896,1.03216 -1.030896,1.03216 -2.805603,-2.805146 -2.805603,-2.805146 2.805173,-2.795049 2.805173,-2.79505 1.029177,1.027413 1.029177,1.027413 -0.939899,0.956148 c -0.516944,0.525882 -0.913735,0.963089 -0.881757,0.971572 0.03198,0.0085 0.37657,0.04475 0.765759,0.08058 1.808968,0.166581 3.362873,0.699051 4.765985,1.63314 0.634234,0.422226 1.570186,1.283694 2.103554,1.936149 2.278478,2.787202 2.851083,6.922019 1.417385,10.235019 -0.231291,0.534468 -0.756407,1.47014 -0.825069,1.47014 -0.01821,0 -0.507416,-0.474856 -1.087124,-1.055237 z"
     id="path364" />
  <path
     style="fill:#ff6600;stroke-width:0.0589681"
     d="m 31.283571,28.305686 -1.029977,-1.031241 0.07721,-0.192505 c 0.483148,-1.204625 0.643651,-1.857078 0.692875,-2.816584 0.115892,-2.259065 -0.946479,-4.507327 -2.779021,-5.88115 -0.505711,-0.379124 -1.42344,-0.838184 -2.091127,-1.04601 -0.841068,-0.261794 -2.359918,-0.480089 -2.359918,-0.339177 0,0.02514 0.468611,0.531419 1.041358,1.125073 l 1.041358,1.079372 -0.996691,0.997986 -0.996692,0.997988 -2.78705,-2.786452 -2.78705,-2.78645 2.78661,-2.751927 2.786609,-2.751927 1.001698,0.997081 1.001697,0.997082 -0.472839,0.487032 c -0.910767,0.938103 -1.339815,1.405046 -1.314385,1.430477 0.01411,0.01411 0.381319,0.06721 0.816026,0.11801 2.768037,0.32347 4.546077,1.177683 6.343035,3.047348 1.532551,1.594559 2.407521,3.604842 2.630607,6.043941 0.12164,1.329949 -0.0825,2.905085 -0.53746,4.14701 -0.200496,0.547303 -0.885455,1.895783 -0.978759,1.926884 -0.03198,0.01066 -0.521625,-0.44468 -1.088113,-1.011861 z"
     id="path579" />
</svg>
