<?xml version="1.0" encoding="UTF-8" standalone="no"?>
<svg
   height="48"
   width="48"
   version="1.1"
   id="svg4"
   sodipodi:docname="conexao1.svg"
   inkscape:version="1.2-beta (1b65182ce9, 2022-04-05)"
   xmlns:inkscape="http://www.inkscape.org/namespaces/inkscape"
   xmlns:sodipodi="http://sodipodi.sourceforge.net/DTD/sodipodi-0.dtd"
   xmlns="http://www.w3.org/2000/svg"
   xmlns:svg="http://www.w3.org/2000/svg">
  <defs
     id="defs8" />
  <sodipodi:namedview
     id="namedview6"
     pagecolor="#ffffff"
     bordercolor="#000000"
     borderopacity="0.25"
     inkscape:pageshadow="2"
     inkscape:pageopacity="0.0"
     inkscape:pagecheckerboard="0"
     inkscape:deskcolor="#d1d1d1"
     showgrid="false"
     inkscape:zoom="16.958333"
     inkscape:cx="24"
     inkscape:cy="24"
     inkscape:window-width="1920"
     inkscape:window-height="1001"
     inkscape:window-x="-9"
     inkscape:window-y="-9"
     inkscape:window-maximized="1"
     inkscape:current-layer="svg4" />
  <path
     d="M32.35 29.5Q33.2 28.25 33.6 26.85Q34 25.45 34 24Q34 22.1 33.275 20.225Q32.55 18.35 31.1 16.9Q29.65 15.45 27.825 14.75Q26 14.05 24.1 14.05L26 12.1L23.9 10L18.2 15.65L23.9 21.3L26 19.2L23.8 17Q25.15 17 26.55 17.525Q27.95 18.05 28.95 19.05Q29.95 20.05 30.475 21.35Q31 22.65 31 23.95Q31 24.8 30.775 25.65Q30.55 26.5 30.15 27.3ZM24.1 38 29.8 32.35 24.1 26.7 22 28.8 24.15 30.95Q22.75 31 21.425 30.5Q20.1 30 19.05 28.95Q18.05 27.95 17.525 26.65Q17 25.35 17 24.05Q17 23.2 17.225 22.35Q17.45 21.5 17.85 20.7L15.65 18.5Q14.8 19.75 14.4 21.15Q14 22.55 14 24Q14 25.9 14.75 27.75Q15.5 29.6 16.95 31.05Q18.4 32.5 20.2 33.225Q22 33.95 23.9 34L22 35.9ZM24 44Q19.75 44 16.1 42.475Q12.45 40.95 9.75 38.25Q7.05 35.55 5.525 31.9Q4 28.25 4 24Q4 19.8 5.525 16.15Q7.05 12.5 9.75 9.8Q12.45 7.1 16.1 5.55Q19.75 4 24 4Q28.2 4 31.85 5.55Q35.5 7.1 38.2 9.8Q40.9 12.5 42.45 16.15Q44 19.8 44 24Q44 28.25 42.45 31.9Q40.9 35.55 38.2 38.25Q35.5 40.95 31.85 42.475Q28.2 44 24 44ZM24 24Q24 24 24 24Q24 24 24 24Q24 24 24 24Q24 24 24 24Q24 24 24 24Q24 24 24 24Q24 24 24 24Q24 24 24 24ZM24 41Q31.25 41 36.125 36.125Q41 31.25 41 24Q41 16.75 36.125 11.875Q31.25 7 24 7Q16.75 7 11.875 11.875Q7 16.75 7 24Q7 31.25 11.875 36.125Q16.75 41 24 41Z"
     id="path2" />
  <path
     style="fill:#ff6600;stroke-width:0.0589681"
     d="M 22.496314,43.922337 C 20.804813,43.762714 20.015682,43.637052 18.840295,43.340152 15.387554,42.467996 12.284829,40.71083 9.7869996,38.213 6.6197094,35.04571 4.7049852,31.021666 4.1464871,26.358722 4.0291778,25.379298 4.0475881,22.380807 4.1768997,21.405405 4.6062031,18.167157 5.667406,15.325691 7.4383886,12.672474 8.1134907,11.661062 8.8168002,10.813893 9.7858624,9.8448305 11.454998,8.1756952 13.006007,7.0784553 15.195558,6.0178176 c 2.019959,-0.9784862 3.884325,-1.5312234 6.209847,-1.8410627 0.958296,-0.1276778 4.052254,-0.1478685 4.923833,-0.032132 2.387212,0.3169958 4.048925,0.7799463 6.071789,1.6915901 1.361454,0.6135664 2.946728,1.586705 4.188654,2.5712536 0.76655,0.6076902 2.359176,2.1935244 2.958777,2.9461604 1.833679,2.301683 3.172993,5.008214 3.850643,7.781508 0.662997,2.713328 0.739119,6.026653 0.202936,8.833097 -0.596186,3.120508 -2.015588,6.178604 -4.037964,8.699778 -3.335856,4.158608 -8.295616,6.75827 -13.795031,7.230676 -0.644789,0.05539 -2.773407,0.07077 -3.272728,0.02365 z m 4.275185,-3.084863 c 2.963119,-0.454969 5.329127,-1.425731 7.543141,-3.094917 2.891534,-2.17998 5.00854,-5.177374 5.978618,-8.464916 0.241196,-0.8174 0.388871,-1.496926 0.551046,-2.535626 0.118091,-0.756357 0.133498,-1.072813 0.133498,-2.742015 0,-1.994437 -0.06367,-2.678069 -0.38442,-4.127764 -0.846776,-3.827146 -3.055605,-7.19424 -6.33294,-9.653805 C 32.027103,8.5423612 29.567413,7.5545766 26.558485,7.1254099 25.512764,6.9762576 22.487061,6.9765065 21.434889,7.1258313 18.431802,7.5520316 15.934514,8.5612609 13.68536,10.25765 c -1.300585,0.980944 -2.449061,2.129351 -3.427917,3.42771 -1.6830805,2.232444 -2.7171678,4.779665 -3.1232174,7.69328 -0.1311559,0.941112 -0.1803565,3.259673 -0.0915,4.311929 0.3449907,4.085467 1.9132429,7.52474 4.7279994,10.368792 2.692318,2.720339 5.866043,4.297012 9.664164,4.801054 1.034714,0.137314 1.093894,0.139822 2.859951,0.121214 1.328786,-0.014 1.812266,-0.04214 2.476659,-0.144155 z"
     id="path360" />
  <path
     style="fill:#ff6600;stroke-width:0.0589681"
     d="m 23.083885,36.911892 -1.028508,-1.029769 0.938424,-0.9398 c 1.059218,-1.060772 1.044835,-0.970988 0.165543,-1.033424 -1.517903,-0.10778 -3.414953,-0.781724 -4.711666,-1.673861 -3.63256,-2.499195 -5.220047,-6.910379 -4.000902,-11.117392 0.07761,-0.267821 0.248306,-0.734096 0.379321,-1.036167 0.245708,-0.566507 0.752069,-1.477056 0.821399,-1.477056 0.02158,0 0.514081,0.475395 1.094447,1.056433 l 1.055211,1.056434 -0.215346,0.501276 c -0.437025,1.017293 -0.676422,2.318149 -0.598686,3.253178 0.265299,3.191056 2.461639,5.726637 5.517224,6.369399 0.517668,0.108895 1.647074,0.185629 1.647074,0.111905 0,-0.02892 -0.470727,-0.523861 -1.04606,-1.099861 l -1.046059,-1.047273 1.030887,-1.032152 1.030888,-1.032151 2.806761,2.806304 2.806762,2.806305 -2.785259,2.769877 c -1.531893,1.523432 -2.795989,2.780606 -2.809103,2.793721 -0.01312,0.01311 -0.486673,-0.439553 -1.052352,-1.005926 z"
     id="path362" />
  <path
     style="fill:#28170b;stroke-width:0.0589681"
     d="m 31.259252,28.34034 -1.054017,-1.055238 0.211567,-0.492674 c 0.727522,-1.694177 0.798101,-3.430018 0.207849,-5.111894 -0.844342,-2.405882 -2.757075,-4.032034 -5.345728,-4.544786 -0.677403,-0.134179 -1.485311,-0.212406 -1.485311,-0.143818 0,0.02677 0.483998,0.533204 1.075552,1.125407 l 1.075552,1.076732 -1.030896,1.03216 -1.030896,1.03216 -2.805603,-2.805146 -2.805603,-2.805146 2.805173,-2.795049 2.805173,-2.79505 1.029177,1.027413 1.029177,1.027413 -0.939899,0.956148 c -0.516944,0.525882 -0.913735,0.963089 -0.881757,0.971572 0.03198,0.0085 0.37657,0.04475 0.765759,0.08058 1.808968,0.166581 3.362873,0.699051 4.765985,1.63314 0.634234,0.422226 1.570186,1.283694 2.103554,1.936149 2.278478,2.787202 2.851083,6.922019 1.417385,10.235019 -0.231291,0.534468 -0.756407,1.47014 -0.825069,1.47014 -0.01821,0 -0.507416,-0.474856 -1.087124,-1.055237 z"
     id="path364" />
  <path
     style="fill:#d45500;stroke-width:0.0589681"
     d="m 31.283571,28.305686 -1.029977,-1.031241 0.07721,-0.192505 c 0.483148,-1.204625 0.643651,-1.857078 0.692875,-2.816584 0.115892,-2.259065 -0.946479,-4.507327 -2.779021,-5.88115 -0.505711,-0.379124 -1.42344,-0.838184 -2.091127,-1.04601 -0.841068,-0.261794 -2.359918,-0.480089 -2.359918,-0.339177 0,0.02514 0.468611,0.531419 1.041358,1.125073 l 1.041358,1.079372 -0.996691,0.997986 -0.996692,0.997988 -2.78705,-2.786452 -2.78705,-2.78645 2.78661,-2.751927 2.786609,-2.751927 1.001698,0.997081 1.001697,0.997082 -0.472839,0.487032 c -0.910767,0.938103 -1.339815,1.405046 -1.314385,1.430477 0.01411,0.01411 0.381319,0.06721 0.816026,0.11801 2.768037,0.32347 4.546077,1.177683 6.343035,3.047348 1.532551,1.594559 2.407521,3.604842 2.630607,6.043941 0.12164,1.329949 -0.0825,2.905085 -0.53746,4.14701 -0.200496,0.547303 -0.885455,1.895783 -0.978759,1.926884 -0.03198,0.01066 -0.521625,-0.44468 -1.088113,-1.011861 z"
     id="path579" />
  <path
     style="fill:#d45500;stroke-width:0.0589681"
     d="m 23.115112,36.884154 -0.997262,-0.998558 0.867365,-0.879511 c 0.477051,-0.483731 0.867365,-0.90753 0.867365,-0.941775 0,-0.10705 -0.104558,-0.13584 -0.69473,-0.191294 -1.87596,-0.176269 -3.739129,-0.910294 -5.197953,-2.047816 -3.347287,-2.610054 -4.700565,-6.992944 -3.39004,-10.979394 0.144335,-0.439048 0.827161,-1.868707 0.99935,-2.092377 0.08567,-0.111279 0.135072,-0.07085 1.1335,0.927581 l 1.043931,1.04393 -0.07986,0.192813 c -0.240499,0.580689 -0.536543,1.558925 -0.619167,2.045955 -0.636418,3.751368 2.061794,7.436921 5.828118,7.960768 0.583913,0.08122 1.271686,0.0824 1.271686,0.0022 0,-0.03357 -0.456227,-0.525705 -1.013838,-1.093623 l -1.013838,-1.032579 0.998655,-0.999953 0.998656,-0.999954 2.775673,2.775212 2.775673,2.775212 -2.764717,2.753254 c -1.520594,1.51429 -2.7707,2.758928 -2.778013,2.765863 -0.0073,0.0069 -0.462064,-0.436742 -1.010559,-0.985949 z"
     id="path840" />
  <path
     style="fill:#d45500;stroke-width:0.0589681"
     d="M 21.906634,43.837449 C 19.800048,43.604196 18.165236,43.209393 16.39312,42.505951 12.432731,40.933874 9.0763635,38.085464 6.8856387,34.437346 5.4206303,31.997732 4.4066688,28.887106 4.156922,26.066204 4.081993,25.21987 4.082439,23.032039 4.1577435,22.044922 c 0.2104331,-2.758444 1.1799044,-5.789859 2.6586404,-8.313236 1.575108,-2.68783 4.0237271,-5.1789642 6.5854011,-6.6997421 2.882966,-1.7115185 5.780861,-2.6641094 8.76951,-2.8826976 1.17857,-0.0862 3.879464,-0.032841 4.659172,0.092046 3.691811,0.5913262 6.616392,1.8246 9.47976,3.9975445 1.186881,0.9006961 2.83673,2.6026022 3.779778,3.8990402 1.996965,2.745293 3.199627,5.748142 3.676281,9.179076 0.150199,1.081121 0.14926,4.308351 -0.0016,5.425062 -0.494152,3.658406 -1.941519,7.0318 -4.274801,9.963326 -0.997618,1.253403 -2.786745,2.887471 -4.197524,3.833734 -2.62446,1.760326 -5.759563,2.904572 -8.963145,3.271358 -0.866044,0.09916 -3.619205,0.115974 -4.422604,0.02702 z m 4.837223,-2.964408 c 3.134958,-0.501289 5.416925,-1.457257 7.811426,-3.272385 0.861873,-0.653334 2.485973,-2.299832 3.163157,-3.20678 1.658239,-2.220865 2.625102,-4.514777 3.125775,-7.415989 0.127048,-0.736195 0.137276,-0.95795 0.135991,-2.948403 -0.0016,-2.460302 -0.04425,-2.87581 -0.469286,-4.570025 C 39.79497,16.605621 38.436688,14.179298 36.357956,12.040948 34.117336,9.7360679 31.531493,8.2267087 28.570025,7.4951249 26.787648,7.054817 25.775408,6.9589986 23.410319,7.0067084 c -1.722004,0.034737 -2.248538,0.090543 -3.503206,0.3712942 -2.498845,0.559155 -4.690554,1.6057466 -6.668784,3.1844984 -0.653866,0.521827 -2.171894,2.038728 -2.677814,2.675828 -1.8292045,2.303495 -2.9361257,4.864862 -3.4275534,7.931204 -0.1503336,0.938031 -0.1869784,4.013895 -0.060417,5.071253 0.4575165,3.822332 1.913674,6.956439 4.4660264,9.612289 2.249259,2.340466 4.738274,3.821125 7.773468,4.624263 0.530253,0.140309 1.520561,0.3294 2.329239,0.444747 0.805502,0.114893 4.286588,0.08143 5.102579,-0.04904 z"
     id="path842" />
  <path
     style="fill:#2b0000;stroke-width:0.0589681"
     d="m 22.437347,40.918344 c -0.113514,-0.0129 -0.458477,-0.05178 -0.766585,-0.0864 -0.816692,-0.09177 -2.171663,-0.372591 -2.980574,-0.617735 -3.595365,-1.089591 -6.864822,-3.572703 -9.0038115,-6.838283 -1.3175181,-2.011446 -2.1010206,-4.15346 -2.5020323,-6.840295 -0.151745,-1.016712 -0.151745,-4.054541 0,-5.071253 0.583543,-3.90982 2.0557999,-6.885639 4.7262118,-9.552918 2.680377,-2.6772329 5.643919,-4.1435572 9.553818,-4.7271118 1.016712,-0.151745 4.054541,-0.151745 5.071253,0 3.909499,0.5834949 6.881167,2.0535598 9.553818,4.7262118 3.262533,3.262532 4.863873,7.242758 4.863873,12.089444 0,4.846687 -1.60134,8.826913 -4.863873,12.089445 -2.288613,2.288614 -5.001809,3.793702 -8.020648,4.449286 -1.363972,0.296206 -2.046288,0.365785 -3.773956,0.38485 -0.908108,0.01002 -1.743981,0.0077 -1.857494,-0.0052 z m 4.569935,-5.743807 2.829917,-2.830377 -1.591818,-1.596116 c -0.8755,-0.877864 -2.170698,-2.156427 -2.878218,-2.841251 l -1.286401,-1.245135 -1.071914,1.071913 -1.071913,1.071914 1.060403,1.061631 1.060402,1.061632 -0.294226,-3.54e-4 C 23.29902,30.927863 22.394083,30.773443 21.847421,30.601467 20.8052,30.273592 19.981938,29.773219 19.149428,28.961649 18.501872,28.33038 18.110867,27.784074 17.718738,26.962712 16.843314,25.129028 16.812685,23.307006 17.623722,21.310455 l 0.256203,-0.6307 -1.097778,-1.096637 c -0.603778,-0.603145 -1.116556,-1.096631 -1.139507,-1.096631 -0.06466,0 -0.662914,1.045752 -0.843366,1.474201 -1.443807,3.42803 -0.95206,7.27667 1.299693,10.171991 0.487628,0.626996 1.528529,1.620871 2.183158,2.084527 1.328215,0.940737 3.334877,1.656805 4.936549,1.761584 0.283783,0.01857 0.51597,0.05876 0.51597,0.08933 0,0.03057 -0.399803,0.455801 -0.888453,0.944968 l -0.888452,0.889394 1.050001,1.051218 c 0.5775,0.578169 1.076916,1.051217 1.109813,1.051217 0.0329,0 1.333275,-1.27367 2.889729,-2.830378 z m 5.682412,-6.154218 c 1.900466,-3.217556 1.751239,-7.493855 -0.372809,-10.683341 -1.634488,-2.454359 -4.249672,-3.981299 -7.314428,-4.270712 -0.356756,-0.03369 -0.688141,-0.06128 -0.736409,-0.0613 -0.04827,-2.7e-5 0.336204,-0.424637 0.854384,-0.943577 l 0.942145,-0.943528 -1.060158,-1.061386 c -0.583087,-0.583763 -1.08697,-1.0612407 -1.11974,-1.061062 -0.03277,1.769e-4 -1.333293,1.27583 -2.89005,2.83478 l -2.830466,2.834456 2.854239,2.826153 c 1.569832,1.554385 2.870354,2.826154 2.89005,2.826154 0.01969,0 0.512901,-0.477645 1.096014,-1.061434 l 1.060204,-1.061433 -1.090303,-1.094154 -1.090303,-1.094154 0.383293,0.03703 c 1.376384,0.132977 2.672522,0.570937 3.707213,1.252651 0.482995,0.318224 1.367794,1.193888 1.717525,1.699791 0.930075,1.345402 1.410519,3.111219 1.241669,4.563615 -0.09165,0.788311 -0.239422,1.352634 -0.554926,2.119138 l -0.256932,0.624206 1.096714,1.105651 c 0.603192,0.608108 1.11585,1.105651 1.13924,1.105651 0.02339,0 0.173615,-0.221937 0.333834,-0.493195 z"
     id="path881" />
  <path
     style="fill:#000000;stroke-width:0.0589681"
     d="M 21.671162,40.801686 C 20.24935,40.619235 18.665589,40.219486 17.48403,39.744834 14.440639,38.522253 11.684989,36.276288 9.8226307,33.500489 8.5085385,31.541867 7.7221513,29.508321 7.2754029,26.913526 7.1503947,26.187455 7.1392598,25.949396 7.139127,24 7.1389952,22.065327 7.1507332,21.809198 7.2715447,21.110566 7.9133231,17.399271 9.3447361,14.563612 11.846351,12.047777 14.528059,9.3508242 17.269845,7.939059 21.126577,7.2693225 21.807019,7.151161 22.075503,7.1389824 24,7.1389824 c 1.924498,0 2.192982,0.012179 2.873424,0.1303401 3.747889,0.6508356 6.546629,2.0629189 9.099579,4.5911245 2.233393,2.211746 3.656392,4.654881 4.393111,7.542501 0.435547,1.707152 0.601045,3.495115 0.518305,5.599509 -0.193753,4.927899 -2.305693,9.111252 -6.2112,12.303211 -2.4344,1.989628 -5.622305,3.279139 -8.721094,3.52769 -1.046125,0.08391 -3.523059,0.06558 -4.280963,-0.03167 z m 5.383928,-5.624435 2.841716,-2.827664 -1.149877,-1.156648 C 28.114497,30.556782 26.805918,29.263696 25.838976,28.319416 L 24.0809,26.602541 22.979431,27.70401 21.877962,28.805479 22.938981,29.868813 24,30.932145 23.646192,30.895629 c -2.0481,-0.211387 -3.415778,-0.846976 -4.674937,-2.172543 -0.53143,-0.559458 -0.836843,-1.014312 -1.225678,-1.825412 -0.862856,-1.799899 -0.892116,-3.479892 -0.09654,-5.542886 l 0.269666,-0.699266 -1.093196,-1.084518 c -0.601259,-0.596484 -1.132201,-1.084517 -1.179873,-1.084517 -0.110205,0 -0.695512,1.021511 -0.953062,1.663338 -1.398887,3.486087 -0.767877,7.464268 1.634153,10.302456 0.515537,0.609148 1.507203,1.506744 2.100796,1.901515 1.274767,0.847787 3.012646,1.460926 4.655467,1.642489 0.306454,0.03387 0.567503,0.07189 0.580109,0.0845 0.01261,0.01261 -0.377324,0.432452 -0.866512,0.93299 l -0.889432,0.910071 1.058774,1.040534 c 0.582326,0.572294 1.101226,1.040534 1.153112,1.040534 0.05189,0 1.37311,-1.272449 2.936053,-2.827664 z m 5.678094,-6.177127 c 0.710472,-1.262415 1.098809,-2.473039 1.25796,-3.921632 0.253,-2.302806 -0.363547,-4.837468 -1.63934,-6.739425 -1.675466,-2.497795 -4.216658,-3.979651 -7.375033,-4.300638 l -0.68193,-0.0693 0.914005,-0.930163 0.914005,-0.930163 -1.073225,-1.056856 c -0.590273,-0.581271 -1.115017,-1.0568558 -1.166097,-1.0568558 -0.05108,0 -1.372552,1.2742498 -2.936604,2.8316658 l -2.843731,2.831667 2.859951,2.827339 c 1.572973,1.555036 2.898279,2.828207 2.945125,2.829267 0.04684,0.0011 0.56429,-0.475279 1.149877,-1.058531 L 26.122851,19.196034 25.061426,18.127022 24,17.058009 l 0.412777,0.03926 c 1.170751,0.111338 2.505547,0.568531 3.460025,1.185125 0.502026,0.324309 1.512583,1.320882 1.835327,1.809928 0.755174,1.144299 1.220991,2.610666 1.220381,3.841698 -4.71e-4,0.893741 -0.256869,2.009061 -0.683924,2.974709 -0.07777,0.175841 -0.141391,0.351131 -0.141391,0.389533 0,0.101988 2.149508,2.215257 2.253244,2.215257 0.04893,0 0.215767,-0.227354 0.376745,-0.51339 z"
     id="path952" />
  <path
     style="fill:#000000;stroke-width:0.0589681"
     d="M 21.611794,40.771543 C 20.383881,40.614941 18.594603,40.157439 17.491916,39.71813 13.661408,38.192062 10.260597,34.954476 8.5833937,31.237183 8.0546512,30.065297 7.6173585,28.636525 7.3339292,27.154792 c -0.1145971,-0.5991 -0.1326273,-0.92516 -0.1547059,-2.79771 -0.026707,-2.265122 0.00168,-2.70727 0.2537042,-3.951767 0.8027638,-3.964033 2.7655865,-7.146943 6.0412745,-9.796523 2.064661,-1.6700264 4.316462,-2.6669079 7.400595,-3.276273 0.573033,-0.1132204 0.895332,-0.1310593 2.768122,-0.1532134 2.271124,-0.026866 2.742948,0.00352 3.971048,0.2557569 3.624632,0.7444508 6.604046,2.45462 9.069267,5.2057155 2.209873,2.466138 3.515148,5.237913 4.002448,8.499272 0.327863,2.1943 0.236057,4.870949 -0.240684,7.017199 -0.472975,2.129296 -1.452139,4.257139 -2.754222,5.985258 -2.783821,3.694677 -6.712808,6.022382 -11.143427,6.601859 -0.764121,0.09994 -4.216,0.118946 -4.935555,0.02718 z m 4.821249,-4.964917 c 1.223989,-1.209059 2.512937,-2.476937 2.864328,-2.817508 l 0.638895,-0.619221 -2.525873,-2.50846 C 26.021164,28.481784 24.704304,27.18371 24.484038,26.97683 l -0.400483,-0.376148 -1.08846,1.087268 c -0.598654,0.597998 -1.087808,1.100805 -1.087012,1.117349 7.96e-4,0.01655 0.43753,0.481188 0.970517,1.032539 0.778401,0.80522 0.945521,1.006273 0.849384,1.021852 -0.191748,0.03107 -1.215855,-0.148593 -1.780035,-0.312281 -1.053808,-0.305745 -1.841307,-0.776039 -2.715663,-1.621795 -1.48456,-1.435998 -2.292146,-3.500652 -2.099106,-5.366519 0.08767,-0.847431 0.242542,-1.438862 0.666154,-2.543997 l 0.149611,-0.390308 -1.118351,-1.069151 c -0.615093,-0.588034 -1.151432,-1.069152 -1.191864,-1.069152 -0.156908,0 -0.803246,1.193296 -1.096163,2.023782 -1.285305,3.644135 -0.442425,7.677076 2.169523,10.38055 0.522077,0.540371 1.373621,1.268925 1.807664,1.546579 1.17429,0.751184 2.947516,1.376553 4.418821,1.558398 0.291892,0.03608 0.565904,0.07715 0.608916,0.09128 0.04756,0.01562 -0.252858,0.372621 -0.766584,0.910969 -0.464634,0.486903 -0.844789,0.910942 -0.844789,0.942307 0,0.08815 2.095437,2.064559 2.188892,2.064559 0.04543,0 1.084043,-0.98923 2.308033,-2.198289 z m 6.145876,-6.537053 c 0.448088,-0.618568 1.063073,-2.138028 1.262762,-3.119943 0.242276,-1.191323 0.271288,-2.788855 0.07047,-3.880571 -0.822688,-4.472471 -4.041732,-7.58595 -8.4549,-8.177631 -0.379867,-0.05093 -0.781122,-0.106491 -0.891678,-0.12347 l -0.20101,-0.03087 0.644078,-0.658962 c 0.354243,-0.362429 0.757144,-0.780042 0.895335,-0.928028 l 0.251257,-0.269066 -1.099602,-1.042973 c -0.60478,-0.573636 -1.137218,-1.0429738 -1.183193,-1.0429738 -0.04598,0 -1.366316,1.2746138 -2.93409,2.8324738 l -2.850498,2.832474 2.720202,2.689213 c 1.496111,1.479067 2.805058,2.753967 2.908771,2.833112 0.123511,0.09425 0.217545,0.127035 0.272551,0.09502 0.04619,-0.02688 0.55602,-0.505918 1.132956,-1.064522 l 1.048974,-1.015644 -1.050404,-1.06073 c -1.18229,-1.193912 -1.158449,-1.085393 -0.206897,-0.941757 0.92183,0.13915 2.12587,0.587378 2.868766,1.067954 0.494051,0.319601 1.396322,1.167476 1.767151,1.660615 0.532362,0.707952 1.076567,1.993327 1.264133,2.985795 0.183526,0.971095 0.03225,2.305048 -0.393073,3.466046 -0.115505,0.315297 -0.239499,0.662073 -0.275542,0.770614 l -0.06553,0.197347 1.093893,1.085208 c 0.601641,0.596865 1.124158,1.085208 1.16115,1.085208 0.03699,0 0.146778,-0.109774 0.243968,-0.243941 z"
     id="path1023" />
</svg>
