<svg width="137" height="120" viewBox="0 0 137 120" fill="none" xmlns="http://www.w3.org/2000/svg">
<path d="M59.1113 42.4288H71.1975C71.5801 42.4026 71.9385 42.2315 72.2002 41.9503C72.4619 41.669 72.6075 41.2986 72.6075 40.9138C72.6075 40.529 72.4619 40.1585 72.2002 39.8773C71.9385 39.596 71.5801 39.425 71.1975 39.3987H59.1113C58.7287 39.425 58.3704 39.596 58.1086 39.8773C57.8469 40.1585 57.7013 40.529 57.7013 40.9138C57.7013 41.2986 57.8469 41.669 58.1086 41.9503C58.3704 42.2315 58.7287 42.4026 59.1113 42.4288Z" fill="white"/>
<path d="M75.7236 45.4594H54.5852C54.2026 45.4856 53.8442 45.6567 53.5825 45.9379C53.3208 46.2192 53.1752 46.5896 53.1752 46.9744C53.1752 47.3592 53.3208 47.7297 53.5825 48.0109C53.8442 48.2922 54.2026 48.4632 54.5852 48.4895H75.7236C75.9306 48.5037 76.1383 48.4751 76.3338 48.4054C76.5292 48.3357 76.7084 48.2264 76.86 48.0844C77.0116 47.9423 77.1325 47.7704 77.2151 47.5795C77.2978 47.3886 77.3405 47.1826 77.3405 46.9744C77.3405 46.7663 77.2978 46.5603 77.2151 46.3694C77.1325 46.1785 77.0116 46.0066 76.86 45.8645C76.7084 45.7225 76.5292 45.6132 76.3338 45.5435C76.1383 45.4738 75.9306 45.4451 75.7236 45.4594Z" fill="white"/>
<path d="M101.395 24.2413C101.389 23.3062 101.096 22.3957 100.556 21.6338C100.015 20.8719 99.254 20.2956 98.3755 19.9834V15.1082C99.2069 15.0062 99.9725 14.603 100.529 13.9745C101.085 13.346 101.393 12.5353 101.395 11.6949V9.09048H108.962C109.345 9.06419 109.703 8.89314 109.965 8.6119C110.227 8.33066 110.372 7.9602 110.372 7.5754C110.372 7.19059 110.227 6.82014 109.965 6.5389C109.703 6.25766 109.345 6.08661 108.962 6.06032H101.395V3.45594C101.393 2.53995 101.03 1.662 100.384 1.01429C99.739 0.366585 98.864 0.00187513 97.9512 0L95.7801 0C94.8672 0.00187513 93.9923 0.366585 93.3468 1.01429C92.7013 1.662 92.3378 2.53995 92.336 3.45594V6.06032H84.783C84.4004 6.08661 84.042 6.25766 83.7803 6.5389C83.5185 6.82014 83.3729 7.19059 83.3729 7.5754C83.3729 7.9602 83.5185 8.33066 83.7803 8.6119C84.042 8.89314 84.4004 9.06419 84.783 9.09048H92.336V11.6949C92.3384 12.5353 92.6466 13.346 93.2026 13.9745C93.7587 14.603 94.5243 15.0062 95.3557 15.1082V19.9622C94.4773 20.2743 93.716 20.8506 93.1757 21.6125C92.6353 22.3744 92.3421 23.2849 92.336 24.22V29.521L83.2766 36.3619V34.9923C83.2748 34.1516 82.9411 33.3459 82.3487 32.7514C81.7562 32.1569 80.9532 31.8221 80.1154 31.8202H69.6841V24.2413C69.6983 24.0336 69.6697 23.8252 69.6003 23.6291C69.5308 23.4329 69.4219 23.2532 69.2803 23.101C69.1387 22.9489 68.9675 22.8276 68.7772 22.7446C68.5869 22.6617 68.3817 22.6189 68.1742 22.6189C67.9668 22.6189 67.7615 22.6617 67.5712 22.7446C67.3809 22.8276 67.2097 22.9489 67.0681 23.101C66.9265 23.2532 66.8176 23.4329 66.7481 23.6291C66.6787 23.8252 66.6501 24.0336 66.6643 24.2413V31.8202H63.6445V27.2714C63.6183 26.8875 63.4479 26.5279 63.1676 26.2653C62.8873 26.0026 62.5181 25.8566 62.1347 25.8566C61.7512 25.8566 61.382 26.0026 61.1017 26.2653C60.8214 26.5279 60.651 26.8875 60.6248 27.2714V31.8202H50.1935C49.3556 31.8221 48.5526 32.1569 47.9602 32.7514C47.3678 33.3459 47.0341 34.1516 47.0322 34.9923V36.3619L37.9729 29.5494V24.2413C37.9668 23.3062 37.6735 22.3957 37.1332 21.6338C36.5928 20.8719 35.8316 20.2956 34.9531 19.9834V15.1082C35.7845 15.0062 36.5502 14.603 37.1062 13.9745C37.6623 13.346 37.9705 12.5353 37.9729 11.6949V9.09048H45.5259C45.9085 9.06419 46.2669 8.89314 46.5286 8.6119C46.7903 8.33066 46.9359 7.9602 46.9359 7.5754C46.9359 7.19059 46.7903 6.82014 46.5286 6.5389C46.2669 6.25766 45.9085 6.08661 45.5259 6.06032H37.9729V3.45594C37.971 2.53995 37.6076 1.662 36.9621 1.01429C36.3166 0.366585 35.4417 0.00187513 34.5288 0L32.3577 0C31.4448 0.00187513 30.5699 0.366585 29.9244 1.01429C29.2789 1.662 28.9154 2.53995 28.9136 3.45594V6.06032H21.3677C21.1607 6.0461 20.953 6.07473 20.7575 6.14443C20.5621 6.21413 20.383 6.32341 20.2313 6.46549C20.0797 6.60757 19.9588 6.77942 19.8762 6.97035C19.7935 7.16128 19.7509 7.36723 19.7509 7.5754C19.7509 7.78357 19.7935 7.98951 19.8762 8.18045C19.9588 8.37138 20.0797 8.54323 20.2313 8.68531C20.383 8.82739 20.5621 8.93667 20.7575 9.00637C20.953 9.07607 21.1607 9.1047 21.3677 9.09048H28.9136V11.6949C28.916 12.5353 29.2242 13.346 29.7803 13.9745C30.3363 14.603 31.102 15.0062 31.9334 15.1082V19.9622C31.0549 20.2743 30.2936 20.8506 29.7533 21.6125C29.2129 22.3744 28.9197 23.2849 28.9136 24.22V48.4897C28.9598 49.664 29.4573 50.7749 30.3017 51.5894C31.1461 52.4039 32.272 52.8588 33.4432 52.8588C34.6145 52.8588 35.7404 52.4039 36.5848 51.5894C37.4292 50.7749 37.9267 49.664 37.9729 48.4897V42.7345L45.632 49.4619C40.0238 53.01 34.0408 65.4358 33.4892 75.7611H33.4397V82.8575C33.4397 83.7872 33.8078 84.6789 34.463 85.3363C35.1181 85.9938 36.0068 86.3631 36.9333 86.3631H39.0125C39.9342 86.3575 40.8163 85.9866 41.4667 85.3313C42.1171 84.6761 42.483 83.7894 42.4849 82.8646V78.77V77.2513C42.4849 65.2442 52.1524 56.0615 56.0986 56.0615H59.1184V62.1218H63.6516V82.4956C61.1432 82.8652 58.8497 84.1242 57.1866 86.0443C55.5234 87.9644 54.6006 90.4188 54.5852 92.9627C54.5852 93.1047 54.5852 93.2466 54.5852 93.3956H45.1016C42.1313 93.3956 39.7197 95.5955 39.7197 98.2921V115.103C39.7197 117.807 42.1313 120 45.1016 120H82.4138C85.3841 120 87.7957 117.8 87.7957 115.103V98.3134C87.7957 95.6168 85.377 93.4169 82.4138 93.4169H75.6529C75.6995 93.2701 75.7234 93.1169 75.7236 92.9627C75.7136 90.4162 74.7941 87.9576 73.1319 86.0331C71.4697 84.1087 69.175 82.8461 66.6643 82.4743V62.1218H71.1975V56.0615H74.2173C78.1564 56.0615 87.8098 65.2442 87.8098 77.2726V78.77V82.8433C87.8098 83.773 88.1779 84.6647 88.8331 85.3221C89.4883 85.9796 90.3769 86.3489 91.3034 86.3489H93.4038C94.3304 86.3489 95.219 85.9796 95.8742 85.3221C96.5294 84.6647 96.8974 83.773 96.8974 82.8433V75.7469H96.8479C96.2327 65.4287 90.285 52.9746 84.6769 49.4619L92.336 42.7345V48.4897C92.3822 49.664 92.8797 50.7749 93.7241 51.5894C94.5685 52.4039 95.6943 52.8588 96.8656 52.8588C98.0369 52.8588 99.1627 52.4039 100.007 51.5894C100.852 50.7749 101.349 49.664 101.395 48.4897V24.2413ZM31.9334 3.45594C31.9334 3.34302 31.9781 3.23472 32.0576 3.15487C32.1372 3.07502 32.2451 3.03016 32.3577 3.03016H34.5288C34.6413 3.03016 34.7493 3.07502 34.8288 3.15487C34.9084 3.23472 34.9531 3.34302 34.9531 3.45594V6.06032H31.9334V3.45594ZM31.9334 9.09048H34.9531V11.6949C34.9531 11.8078 34.9084 11.9161 34.8288 11.9959C34.7493 12.0758 34.6413 12.1206 34.5288 12.1206H32.3577C32.2451 12.1206 32.1372 12.0758 32.0576 11.9959C31.9781 11.9161 31.9334 11.8078 31.9334 11.6949V9.09048ZM34.9531 27.2714V48.4897C34.9269 48.8736 34.7565 49.2332 34.4762 49.4958C34.1959 49.7584 33.8267 49.9045 33.4432 49.9045C33.0598 49.9045 32.6906 49.7584 32.4103 49.4958C32.13 49.2332 31.9596 48.8736 31.9334 48.4897V24.2413C31.9596 23.8574 32.13 23.4978 32.4103 23.2351C32.6906 22.9725 33.0598 22.8264 33.4432 22.8264C33.8267 22.8264 34.1959 22.9725 34.4762 23.2351C34.7565 23.4978 34.9269 23.8574 34.9531 24.2413V27.2714ZM37.9729 38.7037V33.353L47.0322 40.1727V46.6801L37.9729 38.7037ZM39.4863 82.8575C39.4863 82.9836 39.4364 83.1045 39.3475 83.1937C39.2587 83.2828 39.1382 83.3329 39.0125 83.3329H36.9333C36.8076 83.3329 36.6871 83.2828 36.5983 83.1937C36.5094 83.1045 36.4595 82.9836 36.4595 82.8575V78.77H39.4793L39.4863 82.8575ZM39.5358 75.7611H36.509C37.0677 65.4145 43.1921 54.6422 47.0322 52.0946V52.8894V53.0242C47.0054 53.7408 47.2433 54.442 47.7001 54.9933C48.1569 55.5447 48.8005 55.9074 49.5075 56.0118C43.7173 61.0179 40.131 68.1156 39.5288 75.7611H39.5358ZM85.0305 98.3134V115.125C85.0305 116.296 83.8565 117.254 82.4138 117.254H45.1016C43.6871 117.254 42.4849 116.303 42.4849 115.125V98.3134C42.4849 97.1425 43.6589 96.1845 45.1016 96.1845H55.1651C55.7707 97.8037 56.826 99.2148 58.2061 100.251C58.5277 100.478 58.9248 100.571 59.3134 100.51C59.702 100.448 60.0515 100.237 60.2878 99.9217C60.5241 99.6061 60.6287 99.2106 60.5794 98.819C60.5301 98.4274 60.3308 98.0704 60.0236 97.8238C59.4276 97.3746 58.9193 96.8189 58.5244 96.1845H82.4138C83.8565 96.1916 85.0305 97.1425 85.0305 98.3134ZM72.7039 92.9627C72.7062 93.1097 72.7301 93.2556 72.7746 93.3956H57.6262C57.6262 93.2537 57.6262 93.1047 57.6262 92.9627C57.6863 90.9938 58.508 89.1256 59.9172 87.7541C61.3265 86.3827 63.2125 85.6157 65.1756 85.6157C67.1388 85.6157 69.0248 86.3827 70.4341 87.7541C71.8433 89.1256 72.665 90.9938 72.7251 92.9627H72.7039ZM80.2569 48.4684V52.8681C80.2569 52.9058 80.2419 52.9419 80.2154 52.9685C80.1889 52.9951 80.1529 53.0101 80.1154 53.0101H50.1935C50.1559 53.0101 50.12 52.9951 50.0934 52.9685C50.0669 52.9419 50.052 52.9058 50.052 52.8681V48.4897V38.6399V34.9923C50.052 34.9547 50.0669 34.9186 50.0934 34.892C50.12 34.8653 50.1559 34.8504 50.1935 34.8504H80.1083C80.1458 34.8504 80.1818 34.8653 80.2084 34.892C80.2349 34.9186 80.2498 34.9547 80.2498 34.9923L80.2569 48.4684ZM93.8494 82.8433C93.8494 82.9694 93.7995 83.0903 93.7106 83.1795C93.6217 83.2686 93.5012 83.3187 93.3755 83.3187H91.2822C91.1565 83.3187 91.036 83.2686 90.9472 83.1795C90.8583 83.0903 90.8084 82.9694 90.8084 82.8433V78.77H93.8282L93.8494 82.8433ZM93.8069 75.7469H90.7801C90.1724 68.109 86.5866 61.0199 80.8014 56.0189C81.5083 55.9145 82.152 55.5518 82.6088 55.0004C83.0656 54.4491 83.3034 53.7479 83.2766 53.0313V52.0946C87.1168 54.6422 93.2412 65.4145 93.8069 75.7611V75.7469ZM92.336 38.6966L83.2766 46.6588V40.1514L92.336 33.353V38.6966ZM95.3557 3.44885C95.3557 3.33592 95.4004 3.22762 95.48 3.14777C95.5596 3.06792 95.6675 3.02306 95.7801 3.02306H97.9512C98.0637 3.02306 98.1716 3.06792 98.2512 3.14777C98.3308 3.22762 98.3755 3.33592 98.3755 3.44885V6.06032H95.3557V3.44885ZM95.3557 9.08338H98.3543V11.6878C98.3543 11.8007 98.3096 11.909 98.23 11.9888C98.1504 12.0687 98.0425 12.1135 97.93 12.1135H95.7588C95.6463 12.1135 95.5384 12.0687 95.4588 11.9888C95.3792 11.909 95.3345 11.8007 95.3345 11.6878L95.3557 9.08338ZM98.3543 48.4897C98.3281 48.8736 98.1576 49.2332 97.8773 49.4958C97.5971 49.7584 97.2279 49.9045 96.8444 49.9045C96.4609 49.9045 96.0917 49.7584 95.8114 49.4958C95.5312 49.2332 95.3607 48.8736 95.3345 48.4897V24.2413C95.3203 24.0336 95.3489 23.8252 95.4183 23.6291C95.4878 23.4329 95.5967 23.2532 95.7383 23.101C95.8799 22.9489 96.0511 22.8276 96.2414 22.7446C96.4317 22.6617 96.6369 22.6189 96.8444 22.6189C97.0519 22.6189 97.2571 22.6617 97.4474 22.7446C97.6376 22.8276 97.8089 22.9489 97.9505 23.101C98.0921 23.2532 98.201 23.4329 98.2705 23.6291C98.3399 23.8252 98.3685 24.0336 98.3543 24.2413V48.4897Z" fill="white"/>
<path d="M54.7832 107.915H52.0181V110.307H54.7832V107.915Z" fill="white"/>
<path d="M54.7832 112.698H52.0181V115.089H54.7832V112.698Z" fill="white"/>
<path d="M54.7832 98.3557H52.0181V100.747H54.7832V98.3557Z" fill="white"/>
<path d="M54.7832 103.132H52.0181V105.524H54.7832V103.132Z" fill="white"/>
<path d="M69.4649 112.534C69.5073 112.577 69.5644 112.6 69.624 112.6C69.6836 112.6 69.7408 112.577 69.7831 112.534L70.455 111.86L70.066 109.809L72.6968 107.205L75.5257 112.421C75.5825 112.476 75.6586 112.507 75.7378 112.507C75.8171 112.507 75.8932 112.476 75.95 112.421L77.025 111.342L75.1084 104.913L77.23 102.912C77.4964 102.645 77.646 102.282 77.646 101.904C77.646 101.526 77.4964 101.164 77.23 100.896C76.9637 100.629 76.6025 100.479 76.2258 100.479C75.8491 100.479 75.4879 100.629 75.2216 100.896L73.2131 103.025L66.8482 101.116L65.7874 102.188C65.7321 102.245 65.7012 102.321 65.7012 102.401C65.7012 102.48 65.7321 102.557 65.7874 102.614L70.95 105.452L68.3546 108.106L66.3461 107.695L65.6743 108.369C65.6324 108.411 65.6089 108.469 65.6089 108.529C65.6089 108.588 65.6324 108.646 65.6743 108.688L69.4649 112.534Z" fill="white"/>
<path d="M0 48.2761C0 50.2595 0.785234 52.1618 2.18295 53.5643C3.58067 54.9668 5.47637 55.7547 7.45304 55.7547C9.42971 55.7547 11.3254 54.9668 12.7231 53.5643C14.1209 52.1618 14.9061 50.2595 14.9061 48.2761C14.8703 46.3054 14.0742 44.4254 12.6853 43.0317C11.2963 41.638 9.42279 40.8391 7.45885 40.8032C5.48265 40.8032 3.58723 41.5902 2.18876 42.9913C0.790284 44.3924 0.00307819 46.2931 0 48.2761ZM12.0364 48.0895C11.9878 49.2952 11.4887 50.4384 10.6383 51.2916C9.78802 52.1449 8.64879 52.6457 7.44724 52.6945C6.53959 52.6945 5.65232 52.4244 4.89763 51.9184C4.14295 51.4124 3.55474 50.6932 3.2074 49.8518C2.86006 49.0103 2.76917 48.0844 2.94624 47.1912C3.12332 46.2979 3.56039 45.4774 4.2022 44.8333C4.84401 44.1893 5.66172 43.7508 6.55194 43.5731C7.44215 43.3954 8.36487 43.4866 9.20343 43.8351C10.042 44.1837 10.7587 44.7739 11.263 45.5312C11.7673 46.2884 12.0364 47.1788 12.0364 48.0895Z" fill="white"/>
<path d="M109.211 87.9135C109.211 89.897 109.996 91.7992 111.394 93.2017C112.791 94.6043 114.687 95.3922 116.664 95.3922C118.64 95.3922 120.536 94.6043 121.934 93.2017C123.332 91.7992 124.117 89.897 124.117 87.9135C124.081 85.9428 123.285 84.0629 121.896 82.6691C120.507 81.2754 118.633 80.4766 116.67 80.4407C114.693 80.4407 112.798 81.2276 111.399 82.6287C110.001 84.0298 109.214 85.9305 109.211 87.9135ZM121.247 87.727C121.198 88.9327 120.699 90.0758 119.849 90.9291C118.999 91.7823 117.859 92.2831 116.658 92.3319C115.75 92.3319 114.863 92.0619 114.108 91.5559C113.354 91.0499 112.765 90.3307 112.418 89.4892C112.071 88.6478 111.98 87.7219 112.157 86.8286C112.334 85.9353 112.771 85.1148 113.413 84.4708C114.055 83.8268 114.872 83.3882 115.763 83.2105C116.653 83.0328 117.576 83.124 118.414 83.4726C119.253 83.8211 119.969 84.4113 120.474 85.1686C120.978 85.9259 121.247 86.8162 121.247 87.727Z" fill="white"/>
<path d="M8.16546 97.7279C8.42246 97.9731 8.76352 98.1099 9.11815 98.1099C9.47278 98.1099 9.81384 97.9731 10.0708 97.7279C10.3468 97.4466 10.5015 97.0676 10.5015 96.6729C10.5015 96.2781 10.3468 95.8991 10.0708 95.6178L7.20115 92.5517C7.06382 92.4098 6.89975 92.2968 6.71847 92.2191C6.53719 92.1414 6.34233 92.1006 6.14521 92.0992C5.94809 92.0977 5.75266 92.1356 5.57027 92.2106C5.38788 92.2857 5.22217 92.3963 5.08279 92.5362C4.9434 92.6761 4.83312 92.8423 4.75835 93.0254C4.68358 93.2084 4.64582 93.4045 4.64726 93.6023C4.6487 93.8001 4.68932 93.9956 4.76674 94.1775C4.84417 94.3594 4.95686 94.524 5.09827 94.6618L8.16546 97.7279Z" fill="white"/>
<path d="M17.3323 102.717C17.052 102.444 16.676 102.293 16.2853 102.295C15.8947 102.298 15.5209 102.455 15.2447 102.732C14.9684 103.01 14.812 103.385 14.8091 103.777C14.8063 104.169 14.9572 104.546 15.2294 104.827L18.2733 107.835C18.5303 108.08 18.8714 108.217 19.226 108.217C19.5807 108.217 19.9217 108.08 20.1787 107.835C20.4547 107.554 20.6094 107.175 20.6094 106.78C20.6094 106.385 20.4547 106.006 20.1787 105.725L17.3323 102.717Z" fill="white"/>
<path d="M8.363 102.717L5.30742 105.783C5.03141 106.065 4.87671 106.444 4.87671 106.839C4.87671 107.233 5.03141 107.612 5.30742 107.894C5.56441 108.139 5.90549 108.276 6.26011 108.276C6.61474 108.276 6.95581 108.139 7.2128 107.894L10.2684 104.828C10.5444 104.546 10.6991 104.167 10.6991 103.772C10.6991 103.378 10.5444 102.999 10.2684 102.717C10.1485 102.583 10.0017 102.475 9.83751 102.402C9.67335 102.328 9.49553 102.29 9.31568 102.29C9.13584 102.29 8.95802 102.328 8.79385 102.402C8.62969 102.475 8.48287 102.583 8.363 102.717Z" fill="white"/>
<path d="M18.4824 92.5516L15.4268 95.6177C15.1508 95.899 14.9961 96.278 14.9961 96.6728C14.9961 97.0676 15.1508 97.4465 15.4268 97.7278C15.6838 97.973 16.0249 98.1098 16.3795 98.1098C16.7341 98.1098 17.0752 97.973 17.3322 97.7278L20.3878 94.6617C20.6638 94.3804 20.8185 94.0015 20.8185 93.6067C20.8185 93.2119 20.6638 92.833 20.3878 92.5516C20.2679 92.4171 20.121 92.3095 19.9569 92.2358C19.7927 92.1621 19.6149 92.124 19.4351 92.124C19.2552 92.124 19.0774 92.1621 18.9132 92.2358C18.7491 92.3095 18.6022 92.4171 18.4824 92.5516Z" fill="white"/>
<path d="M124.347 31.2765C124.604 31.5217 124.945 31.6585 125.3 31.6585C125.654 31.6585 125.995 31.5217 126.252 31.2765C126.528 30.9952 126.683 30.6162 126.683 30.2215C126.683 29.8267 126.528 29.4477 126.252 29.1664L123.383 26.1003C123.245 25.9584 123.081 25.8453 122.9 25.7676C122.719 25.6899 122.524 25.6492 122.327 25.6477C122.13 25.6463 121.934 25.6842 121.752 25.7592C121.569 25.8343 121.404 25.9449 121.264 26.0848C121.125 26.2246 121.015 26.3909 120.94 26.5739C120.865 26.757 120.827 26.9531 120.829 27.1508C120.83 27.3486 120.871 27.5442 120.948 27.7261C121.026 27.908 121.138 28.0726 121.28 28.2104L124.347 31.2765Z" fill="white"/>
<path d="M133.514 36.266C133.233 35.9929 132.857 35.8414 132.467 35.8443C132.076 35.8471 131.702 36.0041 131.426 36.2813C131.15 36.5585 130.993 36.9336 130.991 37.3256C130.988 37.7176 131.139 38.0949 131.411 38.3761L134.455 41.3839C134.712 41.6291 135.053 41.7658 135.407 41.7658C135.762 41.7658 136.103 41.6291 136.36 41.3839C136.636 41.1026 136.791 40.7236 136.791 40.3288C136.791 39.9341 136.636 39.5551 136.36 39.2738L133.514 36.266Z" fill="white"/>
<path d="M124.544 36.2657L121.489 39.3318C121.213 39.6132 121.058 39.9921 121.058 40.3869C121.058 40.7817 121.213 41.1606 121.489 41.4419C121.746 41.6871 122.087 41.8239 122.442 41.8239C122.796 41.8239 123.137 41.6871 123.394 41.4419L126.45 38.3759C126.726 38.0945 126.88 37.7156 126.88 37.3208C126.88 36.926 126.726 36.5471 126.45 36.2657C126.33 36.1312 126.183 36.0236 126.019 35.9499C125.855 35.8762 125.677 35.8381 125.497 35.8381C125.317 35.8381 125.139 35.8762 124.975 35.9499C124.811 36.0236 124.664 36.1312 124.544 36.2657Z" fill="white"/>
<path d="M134.664 26.1005L131.608 29.1665C131.332 29.4479 131.178 29.8268 131.178 30.2216C131.178 30.6164 131.332 30.9953 131.608 31.2767C131.865 31.5219 132.206 31.6586 132.561 31.6586C132.916 31.6586 133.257 31.5219 133.514 31.2767L136.569 28.2106C136.845 27.9292 137 27.5503 137 27.1555C137 26.7607 136.845 26.3818 136.569 26.1005C136.449 25.9659 136.303 25.8583 136.138 25.7846C135.974 25.711 135.796 25.6729 135.617 25.6729C135.437 25.6729 135.259 25.711 135.095 25.7846C134.931 25.8583 134.784 25.9659 134.664 26.1005Z" fill="white"/>
</svg>
