<svg width="142" height="30" viewBox="0 0 142 30" fill="none" xmlns="http://www.w3.org/2000/svg">
<path d="M113.712 24.192H109.978V10.0396H106.013V6.40588H113.712V24.192Z" fill="#F05929"/>
<path d="M115.801 21.4994L121.518 15.9089C123.399 14.079 124.288 13.291 124.288 11.8942C124.288 10.6992 123.221 9.81031 121.873 9.81031C120.12 9.81031 119.205 11.1062 119.307 13.0126H115.522C115.345 8.94739 118.088 6.1521 121.951 6.1521C125.559 6.1521 128.151 8.51441 128.151 11.7932C128.151 14.232 126.524 16.1384 124.187 18.2972L121.951 20.5325H128.201V24.1907H115.802V21.4979L115.801 21.4994Z" fill="#F05929"/>
<path d="M136.537 10.0136H129.523V6.40588H141.847V8.8707L137.629 13.2159C140.171 13.4699 141.999 15.5782 141.999 18.323C141.999 21.9062 139.254 24.446 135.443 24.446C131.912 24.446 129.243 22.1587 129.014 18.9319H132.775C132.978 19.9234 133.893 20.7863 135.443 20.7863C136.993 20.7863 138.136 19.7199 138.136 18.2205C138.136 16.0861 135.697 15.3487 133.13 16.0861V13.6718L136.534 10.0136H136.537Z" fill="#F05929"/>
<path d="M10.8052 6.29785H10.7792C10.4066 6.29785 10.1045 6.59403 10.1045 6.95938V8.87948C10.1045 9.24483 10.4066 9.54101 10.7792 9.54101H10.8052C11.1779 9.54101 11.48 9.24483 11.48 8.87948V6.95938C11.48 6.59403 11.1779 6.29785 10.8052 6.29785Z" fill="#F05929"/>
<path d="M20.9185 17.6131C21.483 17.6131 21.9406 17.1645 21.9406 16.6111C21.9406 16.0576 21.483 15.609 20.9185 15.609C20.3541 15.609 19.8965 16.0576 19.8965 16.6111C19.8965 17.1645 20.3541 17.6131 20.9185 17.6131Z" fill="#F05929"/>
<path d="M17.1729 15.609C16.6083 15.609 16.1509 16.0575 16.1509 16.6111C16.1509 17.1646 16.6083 17.6131 17.1729 17.6131C17.7375 17.6131 18.1949 17.1646 18.1949 16.6111C18.1949 16.0575 17.7375 15.609 17.1729 15.609Z" fill="#F05929"/>
<path d="M13.4261 15.609C12.8615 15.609 12.4041 16.0575 12.4041 16.6111C12.4041 17.1646 12.8615 17.6131 13.4261 17.6131C13.9907 17.6131 14.4481 17.1646 14.4481 16.6111C14.4481 16.0575 13.9907 15.609 13.4261 15.609Z" fill="#F05929"/>
<path d="M83.4156 0.000366211H15.3004C6.85026 0.000366211 0.000488281 6.7162 0.000488281 15.0011C0.000488281 15.0011 0.000488281 15.0146 0.000488281 15.0206C0.0111982 23.2965 6.85638 30.0004 15.2989 30.0004H83.4156C91.852 30.0004 98.7155 23.271 98.7155 14.9996C98.7155 6.7282 91.852 0.000366211 83.4156 0.000366211ZM7.6229 24.1726C6.28263 24.1726 5.19328 23.103 5.19328 21.7905V9.46884C5.19328 8.15477 6.28416 7.08672 7.6229 7.08672H8.76887V6.95771C8.76887 5.87016 9.67156 4.98662 10.7793 4.98662H10.8068C11.9161 4.98662 12.8172 5.87166 12.8172 6.95771V7.08672H17.4347V6.95771C17.4347 5.87016 18.3374 4.98662 19.4451 4.98662H19.4727C20.5819 4.98662 21.4831 5.87166 21.4831 6.95771V7.08672H22.9779C24.3182 7.08672 25.4075 8.15627 25.4075 9.46884V21.7905C25.4075 23.1045 24.3166 24.1726 22.9779 24.1726H7.6229ZM83.4171 27.0122H24.4635C28.1875 24.2761 30.5988 19.9139 30.5988 14.9996C30.5988 10.0854 28.189 5.72315 24.4635 2.98702H83.4156C90.1705 2.98702 95.6678 8.37529 95.6678 14.9996C95.6678 21.6239 90.1721 27.0122 83.4156 27.0122H83.4171Z" fill="#F05929"/>
<path d="M22.9764 8.65397H21.4816V8.87898C21.4816 9.96653 20.5789 10.8501 19.4712 10.8501H19.4436C18.3344 10.8501 17.4332 9.96503 17.4332 8.87898V8.65397H12.8157V8.87898C12.8157 9.96653 11.913 10.8501 10.8053 10.8501H10.7778C9.66851 10.8501 8.76734 9.96503 8.76734 8.87898V8.65397H7.62138C7.16238 8.65397 6.78906 9.01998 6.78906 9.47001V21.7916C6.78906 22.2416 7.16238 22.6077 7.62138 22.6077H22.9764C23.4354 22.6077 23.8087 22.2416 23.8087 21.7916V9.46851C23.8087 9.01848 23.4354 8.65247 22.9764 8.65247V8.65397ZM9.68075 20.8451C9.11618 20.8451 8.65871 20.3966 8.65871 19.843C8.65871 19.2895 9.11618 18.841 9.68075 18.841C10.2453 18.841 10.7028 19.2895 10.7028 19.843C10.7028 20.3966 10.2453 20.8451 9.68075 20.8451ZM9.68075 17.6124C9.11618 17.6124 8.65871 17.1639 8.65871 16.6104C8.65871 16.0568 9.11618 15.6083 9.68075 15.6083C10.2453 15.6083 10.7028 16.0568 10.7028 16.6104C10.7028 17.1639 10.2453 17.6124 9.68075 17.6124ZM20.9185 12.3757C21.4831 12.3757 21.9406 12.8242 21.9406 13.3777C21.9406 13.9312 21.4831 14.3798 20.9185 14.3798C20.354 14.3798 19.8965 13.9312 19.8965 13.3777C19.8965 12.8242 20.354 12.3757 20.9185 12.3757ZM17.1731 12.3757C17.7377 12.3757 18.1951 12.8242 18.1951 13.3777C18.1951 13.9312 17.7377 14.3798 17.1731 14.3798C16.6085 14.3798 16.1511 13.9312 16.1511 13.3777C16.1511 12.8242 16.6085 12.3757 17.1731 12.3757ZM13.4277 12.3757C13.9923 12.3757 14.4497 12.8242 14.4497 13.3777C14.4497 13.9312 13.9923 14.3798 13.4277 14.3798C12.8631 14.3798 12.4057 13.9312 12.4057 13.3777C12.4057 12.8242 12.8631 12.3757 13.4277 12.3757ZM13.4277 20.8451C12.8631 20.8451 12.4057 20.3966 12.4057 19.843C12.4057 19.2895 12.8631 18.841 13.4277 18.841C13.9923 18.841 14.4497 19.2895 14.4497 19.843C14.4497 20.3966 13.9923 20.8451 13.4277 20.8451ZM17.1731 20.8451C16.6085 20.8451 16.1511 20.3966 16.1511 19.843C16.1511 19.2895 16.6085 18.841 17.1731 18.841C17.7377 18.841 18.1951 19.2895 18.1951 19.843C18.1951 20.3966 17.7377 20.8451 17.1731 20.8451ZM20.9185 20.8451C20.354 20.8451 19.8965 20.3966 19.8965 19.843C19.8965 19.2895 20.354 18.841 20.9185 18.841C21.4831 18.841 21.9406 19.2895 21.9406 19.843C21.9406 20.3966 21.4831 20.8451 20.9185 20.8451ZM21.2123 18.2724H13.1339C12.1976 18.2724 11.4402 17.5284 11.4402 16.6119C11.4402 15.6953 12.1991 14.9513 13.1339 14.9513H21.2123C22.1486 14.9513 22.906 15.6953 22.906 16.6119C22.906 17.5284 22.1471 18.2724 21.2123 18.2724Z" fill="#F05929"/>
<path d="M19.471 6.29785H19.445C19.0723 6.29785 18.7703 6.59403 18.7703 6.95938V8.87948C18.7703 9.24483 19.0723 9.54101 19.445 9.54101H19.471C19.8436 9.54101 20.1457 9.24483 20.1457 8.87948V6.95938C20.1457 6.59403 19.8436 6.29785 19.471 6.29785Z" fill="#F05929"/>
<path d="M42.3398 11.168C43.0374 11.5596 43.5852 12.1104 43.983 12.8204C44.3808 13.5303 44.5797 14.3549 44.5797 15.2974C44.5797 16.2399 44.3808 17.0661 43.983 17.7745C43.5852 18.4844 43.0374 19.0336 42.3398 19.4253C41.6421 19.817 40.8664 20.0128 40.0157 20.0128C38.8468 20.0128 37.9273 19.6441 37.2571 18.9067V23.1799H34.6011V10.7166H37.1378V11.7723C37.7957 10.9782 38.755 10.5804 40.0157 10.5804C40.8664 10.5804 41.6421 10.7763 42.3398 11.168ZM41.2336 17.1441C41.6712 16.6851 41.89 16.0685 41.89 15.2974C41.89 14.5263 41.6712 13.9097 41.2336 13.4507C40.796 12.9917 40.2376 12.7607 39.5567 12.7607C38.8759 12.7607 38.3159 12.9902 37.8798 13.4507C37.4423 13.9097 37.2235 14.5263 37.2235 15.2974C37.2235 16.0685 37.4423 16.6851 37.8798 17.1441C38.3174 17.6031 38.8759 17.8341 39.5567 17.8341C40.2376 17.8341 40.796 17.6046 41.2336 17.1441Z" fill="#F05929"/>
<path d="M49.3624 10.9216C49.901 10.6952 50.5222 10.5804 51.2275 10.5804V13.033C50.9322 13.0101 50.7333 12.9994 50.6308 12.9994C49.8704 12.9994 49.2737 13.212 48.8438 13.6374C48.4123 14.0627 48.1966 14.7022 48.1966 15.5529V19.8782H45.5405V10.7181H48.0773V11.9268C48.3955 11.4847 48.8239 11.1496 49.3624 10.9216Z" fill="#F05929"/>
<path d="M54.3533 19.4105C53.5868 19.0081 52.9886 18.4481 52.5571 17.7336C52.1256 17.0191 51.9099 16.2067 51.9099 15.2994C51.9099 14.3921 52.1256 13.5797 52.5571 12.8652C52.9886 12.1507 53.5868 11.5907 54.3533 11.1883C55.1198 10.7859 55.9843 10.584 56.9497 10.584C57.9151 10.584 58.7765 10.7859 59.5385 11.1883C60.2989 11.5907 60.894 12.1507 61.327 12.8652C61.7585 13.5797 61.9742 14.3921 61.9742 15.2994C61.9742 16.2067 61.7585 17.0191 61.327 17.7336C60.8955 18.4481 60.2989 19.0081 59.5385 19.4105C58.778 19.8129 57.9151 20.0148 56.9497 20.0148C55.9843 20.0148 55.1198 19.8129 54.3533 19.4105ZM58.6266 17.1461C59.0641 16.6871 59.2829 16.0705 59.2829 15.2994C59.2829 14.5283 59.0641 13.9117 58.6266 13.4527C58.189 12.9937 57.6305 12.7627 56.9497 12.7627C56.2689 12.7627 55.7074 12.9922 55.2637 13.4527C54.8215 13.9117 54.5996 14.5283 54.5996 15.2994C54.5996 16.0705 54.8215 16.6871 55.2637 17.1461C55.7058 17.6051 56.2689 17.8361 56.9497 17.8361C57.6305 17.8361 58.189 17.6066 58.6266 17.1461Z" fill="#F05929"/>
<path d="M77.3981 11.5948C78.0728 12.271 78.4109 13.2839 78.4109 14.6349V19.8797H75.7549V15.0434C75.7549 14.3166 75.6049 13.775 75.3035 13.417C75.0021 13.059 74.5737 12.88 74.0183 12.88C73.3941 12.88 72.8999 13.0819 72.5373 13.4843C72.1747 13.8867 71.9926 14.4864 71.9926 15.2805V19.8781H69.3365V15.0418C69.3365 13.6006 68.7582 12.88 67.6 12.88C66.9865 12.88 66.4984 13.0819 66.1358 13.4843C65.7732 13.8867 65.5911 14.4864 65.5911 15.2805V19.8781H62.9351V10.7181H65.4718V11.7738C65.813 11.3882 66.2291 11.0929 66.7233 10.8879C67.2175 10.6829 67.7591 10.5819 68.3497 10.5819C68.9969 10.5819 69.5813 10.7089 70.1031 10.9644C70.6248 11.2199 71.0455 11.5917 71.3623 12.0798C71.7371 11.6024 72.2114 11.2337 72.7836 10.9736C73.3574 10.712 73.9847 10.5819 74.6655 10.5819C75.8115 10.5819 76.7233 10.92 77.3981 11.5948Z" fill="#F05929"/>
<path d="M81.7156 19.4105C80.9491 19.0081 80.3509 18.4481 79.9194 17.7336C79.4879 17.0191 79.2722 16.2067 79.2722 15.2994C79.2722 14.3921 79.4879 13.5797 79.9194 12.8652C80.3509 12.1507 80.9491 11.5907 81.7156 11.1883C82.4821 10.7859 83.3466 10.584 84.312 10.584C85.2774 10.584 86.1388 10.7859 86.9008 11.1883C87.6612 11.5907 88.2563 12.1507 88.6893 12.8652C89.1208 13.5797 89.3365 14.3921 89.3365 15.2994C89.3365 16.2067 89.1208 17.0191 88.6893 17.7336C88.2579 18.4481 87.6612 19.0081 86.9008 19.4105C86.1403 19.8129 85.2774 20.0148 84.312 20.0148C83.3466 20.0148 82.4821 19.8129 81.7156 19.4105ZM85.9889 17.1461C86.4265 16.6871 86.6452 16.0705 86.6452 15.2994C86.6452 14.5283 86.4265 13.9117 85.9889 13.4527C85.5513 12.9937 84.9929 12.7627 84.312 12.7627C83.6312 12.7627 83.0697 12.9922 82.626 13.4527C82.1838 13.9117 81.9619 14.5283 81.9619 15.2994C81.9619 16.0705 82.1838 16.6871 82.626 17.1461C83.0681 17.6051 83.6312 17.8361 84.312 17.8361C84.9929 17.8361 85.5513 17.6066 85.9889 17.1461Z" fill="#F05929"/>
</svg>
