<?xml version="1.0" encoding="UTF-8" standalone="no"?>
<svg
   height="48"
   width="48"
   version="1.1"
   id="svg4"
   sodipodi:docname="voo3.svg"
   inkscape:version="1.2-beta (1b65182ce9, 2022-04-05)"
   xmlns:inkscape="http://www.inkscape.org/namespaces/inkscape"
   xmlns:sodipodi="http://sodipodi.sourceforge.net/DTD/sodipodi-0.dtd"
   xmlns="http://www.w3.org/2000/svg"
   xmlns:svg="http://www.w3.org/2000/svg">
  <defs
     id="defs8" />
  <sodipodi:namedview
     id="namedview6"
     pagecolor="#ffffff"
     bordercolor="#000000"
     borderopacity="0.25"
     inkscape:pageshadow="2"
     inkscape:pageopacity="0.0"
     inkscape:pagecheckerboard="0"
     inkscape:deskcolor="#d1d1d1"
     showgrid="false"
     inkscape:zoom="16.958333"
     inkscape:cx="24"
     inkscape:cy="24"
     inkscape:window-width="1920"
     inkscape:window-height="1001"
     inkscape:window-x="-9"
     inkscape:window-y="-9"
     inkscape:window-maximized="1"
     inkscape:current-layer="svg4" />
  <path
     d="M17.5 44V41.9L21.5 38.9V26.35L4 31.5V28.6L21.5 18.3V6.5Q21.5 5.45 22.225 4.725Q22.95 4 24 4Q25.05 4 25.775 4.725Q26.5 5.45 26.5 6.5V18.3L44 28.6V31.5L26.5 26.35V38.9L30.5 41.9V44L24 42.15Z"
     id="path2" />
  <path
     style="fill:#ffffff;stroke-width:0.0589681"
     d="m 17.542998,42.931527 v -1.020838 l 2.002465,-1.495885 2.002465,-1.495885 0.0024,-6.299526 0.0024,-6.299525 -0.162163,0.03638 c -0.08919,0.02001 -4.023095,1.17353 -8.742014,2.563378 L 4.0687961,31.446623 4.0529615,30.05659 c -0.00933,-0.818655 0.00711,-1.412974 0.039981,-1.445847 0.030698,-0.0307 3.9650965,-2.356531 8.7431065,-5.168518 l 8.687293,-5.112702 0.02948,-6.247123 0.02948,-6.2471223 0.190755,-0.3874399 C 22.01764,4.9510885 22.468565,4.5007356 22.963669,4.2587457 23.32858,4.0803905 23.389452,4.0692604 24,4.0692604 c 0.610548,0 0.67142,0.01113 1.036331,0.1894853 0.495104,0.2419899 0.946029,0.6923428 1.190604,1.1890921 l 0.190755,0.3874399 0.02948,6.2456973 0.02948,6.245697 8.684931,5.111766 c 4.776712,2.811472 8.71111,5.137947 8.743108,5.169944 0.03589,0.03589 0.05211,0.590499 0.04234,1.447604 l -0.01583,1.389428 -8.579853,-2.526491 c -4.718919,-1.38957 -8.652825,-2.542817 -8.742014,-2.562773 l -0.162163,-0.03628 0.0024,6.299525 0.0024,6.299526 2.002465,1.495885 2.002465,1.495885 v 1.020883 1.020883 l -0.191646,-0.05542 c -0.105406,-0.03048 -1.557794,-0.442978 -3.22753,-0.916656 l -3.035884,-0.861232 -2.860922,0.811273 c -1.573504,0.4462 -3.026766,0.858675 -3.229469,0.91661 l -0.36855,0.105337 z"
     id="path306" />
</svg>
